<?xml version="1.0" encoding="utf-8"?>
<svg xmlns="http://www.w3.org/2000/svg" xmlns:xlink="http://www.w3.org/1999/xlink" width="600" height="400" viewBox="0 0 2400 1600">
<defs>
  <clipPath id="clip940">
    <rect x="0" y="0" width="2400" height="1600"/>
  </clipPath>
</defs>
<path clip-path="url(#clip940)" d="M0 1600 L2400 1600 L2400 0 L0 0  Z" fill="#ffffff" fill-rule="evenodd" fill-opacity="1"/>
<defs>
  <clipPath id="clip941">
    <rect x="480" y="0" width="1681" height="1600"/>
  </clipPath>
</defs>
<path clip-path="url(#clip940)" d="M140.696 1486.45 L2352.76 1486.45 L2352.76 47.2441 L140.696 47.2441  Z" fill="#ffffff" fill-rule="evenodd" fill-opacity="1"/>
<defs>
  <clipPath id="clip942">
    <rect x="140" y="47" width="2213" height="1440"/>
  </clipPath>
</defs>
<polyline clip-path="url(#clip942)" style="stroke:#000000; stroke-linecap:round; stroke-linejoin:round; stroke-width:2; stroke-opacity:0.1; fill:none" points="203.301,1486.45 203.301,47.2441 "/>
<polyline clip-path="url(#clip942)" style="stroke:#000000; stroke-linecap:round; stroke-linejoin:round; stroke-width:2; stroke-opacity:0.1; fill:none" points="898.917,1486.45 898.917,47.2441 "/>
<polyline clip-path="url(#clip942)" style="stroke:#000000; stroke-linecap:round; stroke-linejoin:round; stroke-width:2; stroke-opacity:0.1; fill:none" points="1594.53,1486.45 1594.53,47.2441 "/>
<polyline clip-path="url(#clip942)" style="stroke:#000000; stroke-linecap:round; stroke-linejoin:round; stroke-width:2; stroke-opacity:0.1; fill:none" points="2290.15,1486.45 2290.15,47.2441 "/>
<polyline clip-path="url(#clip940)" style="stroke:#000000; stroke-linecap:round; stroke-linejoin:round; stroke-width:4; stroke-opacity:1; fill:none" points="140.696,1486.45 2352.76,1486.45 "/>
<polyline clip-path="url(#clip940)" style="stroke:#000000; stroke-linecap:round; stroke-linejoin:round; stroke-width:4; stroke-opacity:1; fill:none" points="203.301,1486.45 203.301,1467.55 "/>
<polyline clip-path="url(#clip940)" style="stroke:#000000; stroke-linecap:round; stroke-linejoin:round; stroke-width:4; stroke-opacity:1; fill:none" points="898.917,1486.45 898.917,1467.55 "/>
<polyline clip-path="url(#clip940)" style="stroke:#000000; stroke-linecap:round; stroke-linejoin:round; stroke-width:4; stroke-opacity:1; fill:none" points="1594.53,1486.45 1594.53,1467.55 "/>
<polyline clip-path="url(#clip940)" style="stroke:#000000; stroke-linecap:round; stroke-linejoin:round; stroke-width:4; stroke-opacity:1; fill:none" points="2290.15,1486.45 2290.15,1467.55 "/>
<path clip-path="url(#clip940)" d="M203.301 1517.37 Q199.69 1517.37 197.861 1520.93 Q196.056 1524.47 196.056 1531.6 Q196.056 1538.71 197.861 1542.27 Q199.69 1545.82 203.301 1545.82 Q206.935 1545.82 208.741 1542.27 Q210.57 1538.71 210.57 1531.6 Q210.57 1524.47 208.741 1520.93 Q206.935 1517.37 203.301 1517.37 M203.301 1513.66 Q209.111 1513.66 212.167 1518.27 Q215.245 1522.85 215.245 1531.6 Q215.245 1540.33 212.167 1544.94 Q209.111 1549.52 203.301 1549.52 Q197.491 1549.52 194.412 1544.94 Q191.357 1540.33 191.357 1531.6 Q191.357 1522.85 194.412 1518.27 Q197.491 1513.66 203.301 1513.66 Z" fill="#000000" fill-rule="nonzero" fill-opacity="1" /><path clip-path="url(#clip940)" d="M889.299 1544.91 L896.938 1544.91 L896.938 1518.55 L888.628 1520.21 L888.628 1515.95 L896.892 1514.29 L901.568 1514.29 L901.568 1544.91 L909.207 1544.91 L909.207 1548.85 L889.299 1548.85 L889.299 1544.91 Z" fill="#000000" fill-rule="nonzero" fill-opacity="1" /><path clip-path="url(#clip940)" d="M1589.19 1544.91 L1605.51 1544.91 L1605.51 1548.85 L1583.56 1548.85 L1583.56 1544.91 Q1586.22 1542.16 1590.81 1537.53 Q1595.41 1532.88 1596.59 1531.53 Q1598.84 1529.01 1599.72 1527.27 Q1600.62 1525.51 1600.62 1523.82 Q1600.62 1521.07 1598.68 1519.33 Q1596.76 1517.6 1593.65 1517.6 Q1591.46 1517.6 1589 1518.36 Q1586.57 1519.13 1583.79 1520.68 L1583.79 1515.95 Q1586.62 1514.82 1589.07 1514.24 Q1591.52 1513.66 1593.56 1513.66 Q1598.93 1513.66 1602.13 1516.35 Q1605.32 1519.03 1605.32 1523.52 Q1605.32 1525.65 1604.51 1527.57 Q1603.72 1529.47 1601.62 1532.07 Q1601.04 1532.74 1597.94 1535.95 Q1594.83 1539.15 1589.19 1544.91 Z" fill="#000000" fill-rule="nonzero" fill-opacity="1" /><path clip-path="url(#clip940)" d="M2294.4 1530.21 Q2297.75 1530.93 2299.63 1533.2 Q2301.53 1535.47 2301.53 1538.8 Q2301.53 1543.92 2298.01 1546.72 Q2294.49 1549.52 2288.01 1549.52 Q2285.83 1549.52 2283.52 1549.08 Q2281.23 1548.66 2278.77 1547.81 L2278.77 1543.29 Q2280.72 1544.43 2283.03 1545.01 Q2285.35 1545.58 2287.87 1545.58 Q2292.27 1545.58 2294.56 1543.85 Q2296.87 1542.11 2296.87 1538.8 Q2296.87 1535.75 2294.72 1534.03 Q2292.59 1532.3 2288.77 1532.3 L2284.75 1532.3 L2284.75 1528.45 L2288.96 1528.45 Q2292.41 1528.45 2294.24 1527.09 Q2296.06 1525.7 2296.06 1523.11 Q2296.06 1520.45 2294.17 1519.03 Q2292.29 1517.6 2288.77 1517.6 Q2286.85 1517.6 2284.65 1518.01 Q2282.45 1518.43 2279.81 1519.31 L2279.81 1515.14 Q2282.48 1514.4 2284.79 1514.03 Q2287.13 1513.66 2289.19 1513.66 Q2294.51 1513.66 2297.62 1516.09 Q2300.72 1518.5 2300.72 1522.62 Q2300.72 1525.49 2299.07 1527.48 Q2297.43 1529.45 2294.4 1530.21 Z" fill="#000000" fill-rule="nonzero" fill-opacity="1" /><polyline clip-path="url(#clip942)" style="stroke:#000000; stroke-linecap:round; stroke-linejoin:round; stroke-width:2; stroke-opacity:0.1; fill:none" points="140.696,1445.72 2352.76,1445.72 "/>
<polyline clip-path="url(#clip942)" style="stroke:#000000; stroke-linecap:round; stroke-linejoin:round; stroke-width:2; stroke-opacity:0.1; fill:none" points="140.696,1068.57 2352.76,1068.57 "/>
<polyline clip-path="url(#clip942)" style="stroke:#000000; stroke-linecap:round; stroke-linejoin:round; stroke-width:2; stroke-opacity:0.1; fill:none" points="140.696,691.416 2352.76,691.416 "/>
<polyline clip-path="url(#clip942)" style="stroke:#000000; stroke-linecap:round; stroke-linejoin:round; stroke-width:2; stroke-opacity:0.1; fill:none" points="140.696,314.266 2352.76,314.266 "/>
<polyline clip-path="url(#clip940)" style="stroke:#000000; stroke-linecap:round; stroke-linejoin:round; stroke-width:4; stroke-opacity:1; fill:none" points="140.696,1486.45 140.696,47.2441 "/>
<polyline clip-path="url(#clip940)" style="stroke:#000000; stroke-linecap:round; stroke-linejoin:round; stroke-width:4; stroke-opacity:1; fill:none" points="140.696,1445.72 159.593,1445.72 "/>
<polyline clip-path="url(#clip940)" style="stroke:#000000; stroke-linecap:round; stroke-linejoin:round; stroke-width:4; stroke-opacity:1; fill:none" points="140.696,1068.57 159.593,1068.57 "/>
<polyline clip-path="url(#clip940)" style="stroke:#000000; stroke-linecap:round; stroke-linejoin:round; stroke-width:4; stroke-opacity:1; fill:none" points="140.696,691.416 159.593,691.416 "/>
<polyline clip-path="url(#clip940)" style="stroke:#000000; stroke-linecap:round; stroke-linejoin:round; stroke-width:4; stroke-opacity:1; fill:none" points="140.696,314.266 159.593,314.266 "/>
<path clip-path="url(#clip940)" d="M92.7512 1431.51 Q89.1401 1431.51 87.3114 1435.08 Q85.5058 1438.62 85.5058 1445.75 Q85.5058 1452.86 87.3114 1456.42 Q89.1401 1459.96 92.7512 1459.96 Q96.3854 1459.96 98.1909 1456.42 Q100.02 1452.86 100.02 1445.75 Q100.02 1438.62 98.1909 1435.08 Q96.3854 1431.51 92.7512 1431.51 M92.7512 1427.81 Q98.5613 1427.81 101.617 1432.42 Q104.696 1437 104.696 1445.75 Q104.696 1454.48 101.617 1459.08 Q98.5613 1463.67 92.7512 1463.67 Q86.941 1463.67 83.8623 1459.08 Q80.8068 1454.48 80.8068 1445.75 Q80.8068 1437 83.8623 1432.42 Q86.941 1427.81 92.7512 1427.81 Z" fill="#000000" fill-rule="nonzero" fill-opacity="1" /><path clip-path="url(#clip940)" d="M53.3995 1081.91 L61.0384 1081.91 L61.0384 1055.55 L52.7282 1057.21 L52.7282 1052.95 L60.9921 1051.29 L65.668 1051.29 L65.668 1081.91 L73.3068 1081.91 L73.3068 1085.85 L53.3995 1085.85 L53.3995 1081.91 Z" fill="#000000" fill-rule="nonzero" fill-opacity="1" /><path clip-path="url(#clip940)" d="M92.7512 1054.36 Q89.1401 1054.36 87.3114 1057.93 Q85.5058 1061.47 85.5058 1068.6 Q85.5058 1075.71 87.3114 1079.27 Q89.1401 1082.81 92.7512 1082.81 Q96.3854 1082.81 98.1909 1079.27 Q100.02 1075.71 100.02 1068.6 Q100.02 1061.47 98.1909 1057.93 Q96.3854 1054.36 92.7512 1054.36 M92.7512 1050.66 Q98.5613 1050.66 101.617 1055.27 Q104.696 1059.85 104.696 1068.6 Q104.696 1077.33 101.617 1081.93 Q98.5613 1086.52 92.7512 1086.52 Q86.941 1086.52 83.8623 1081.93 Q80.8068 1077.33 80.8068 1068.6 Q80.8068 1059.85 83.8623 1055.27 Q86.941 1050.66 92.7512 1050.66 Z" fill="#000000" fill-rule="nonzero" fill-opacity="1" /><path clip-path="url(#clip940)" d="M56.6171 704.761 L72.9365 704.761 L72.9365 708.696 L50.9921 708.696 L50.9921 704.761 Q53.6541 702.006 58.2375 697.377 Q62.8439 692.724 64.0245 691.381 Q66.2698 688.858 67.1494 687.122 Q68.0522 685.363 68.0522 683.673 Q68.0522 680.918 66.1078 679.182 Q64.1865 677.446 61.0847 677.446 Q58.8856 677.446 56.4319 678.21 Q54.0014 678.974 51.2236 680.525 L51.2236 675.803 Q54.0477 674.668 56.5014 674.09 Q58.955 673.511 60.9921 673.511 Q66.3624 673.511 69.5568 676.196 Q72.7513 678.881 72.7513 683.372 Q72.7513 685.502 71.9411 687.423 Q71.1541 689.321 69.0476 691.914 Q68.4689 692.585 65.367 695.803 Q62.2652 698.997 56.6171 704.761 Z" fill="#000000" fill-rule="nonzero" fill-opacity="1" /><path clip-path="url(#clip940)" d="M92.7512 677.215 Q89.1401 677.215 87.3114 680.779 Q85.5058 684.321 85.5058 691.451 Q85.5058 698.557 87.3114 702.122 Q89.1401 705.664 92.7512 705.664 Q96.3854 705.664 98.1909 702.122 Q100.02 698.557 100.02 691.451 Q100.02 684.321 98.1909 680.779 Q96.3854 677.215 92.7512 677.215 M92.7512 673.511 Q98.5613 673.511 101.617 678.117 Q104.696 682.701 104.696 691.451 Q104.696 700.178 101.617 704.784 Q98.5613 709.367 92.7512 709.367 Q86.941 709.367 83.8623 704.784 Q80.8068 700.178 80.8068 691.451 Q80.8068 682.701 83.8623 678.117 Q86.941 673.511 92.7512 673.511 Z" fill="#000000" fill-rule="nonzero" fill-opacity="1" /><path clip-path="url(#clip940)" d="M66.7559 312.912 Q70.1124 313.63 71.9874 315.898 Q73.8855 318.167 73.8855 321.5 Q73.8855 326.616 70.367 329.417 Q66.8485 332.217 60.3671 332.217 Q58.1912 332.217 55.8764 331.778 Q53.5847 331.361 51.131 330.505 L51.131 325.991 Q53.0754 327.125 55.3903 327.704 Q57.7051 328.282 60.2282 328.282 Q64.6263 328.282 66.918 326.546 Q69.2328 324.81 69.2328 321.5 Q69.2328 318.444 67.08 316.731 Q64.9504 314.995 61.131 314.995 L57.1032 314.995 L57.1032 311.153 L61.3161 311.153 Q64.7652 311.153 66.5939 309.787 Q68.4226 308.398 68.4226 305.806 Q68.4226 303.144 66.5245 301.732 Q64.6495 300.296 61.131 300.296 Q59.2097 300.296 57.0106 300.713 Q54.8115 301.13 52.1727 302.009 L52.1727 297.843 Q54.8347 297.102 57.1495 296.732 Q59.4875 296.361 61.5476 296.361 Q66.8717 296.361 69.9735 298.792 Q73.0753 301.199 73.0753 305.319 Q73.0753 308.19 71.4318 310.181 Q69.7883 312.148 66.7559 312.912 Z" fill="#000000" fill-rule="nonzero" fill-opacity="1" /><path clip-path="url(#clip940)" d="M92.7512 300.065 Q89.1401 300.065 87.3114 303.63 Q85.5058 307.171 85.5058 314.301 Q85.5058 321.407 87.3114 324.972 Q89.1401 328.514 92.7512 328.514 Q96.3854 328.514 98.1909 324.972 Q100.02 321.407 100.02 314.301 Q100.02 307.171 98.1909 303.63 Q96.3854 300.065 92.7512 300.065 M92.7512 296.361 Q98.5613 296.361 101.617 300.968 Q104.696 305.551 104.696 314.301 Q104.696 323.028 101.617 327.634 Q98.5613 332.217 92.7512 332.217 Q86.941 332.217 83.8623 327.634 Q80.8068 323.028 80.8068 314.301 Q80.8068 305.551 83.8623 300.968 Q86.941 296.361 92.7512 296.361 Z" fill="#000000" fill-rule="nonzero" fill-opacity="1" /><polyline clip-path="url(#clip942)" style="stroke:#009af9; stroke-linecap:round; stroke-linejoin:round; stroke-width:4; stroke-opacity:1; fill:none" points="203.301,1370.29 224.38,1370.02 245.46,1369.24 266.539,1368.01 287.618,1366.37 308.697,1364.37 329.777,1362.04 350.856,1359.44 371.935,1356.59 393.015,1353.55 414.094,1350.34 435.173,1347 456.252,1343.58 477.332,1340.09 498.411,1336.58 519.49,1333.06 540.57,1329.58 561.649,1326.15 582.728,1322.81 603.807,1319.56 624.887,1316.45 645.966,1313.49 667.045,1310.69 688.125,1308.07 709.204,1305.66 730.283,1303.46 751.362,1301.49 772.442,1299.76 793.521,1298.28 814.6,1297.06 835.68,1296.1 856.759,1295.41 877.838,1294.99 898.917,1294.86 919.997,1294.99 941.076,1295.41 962.155,1296.1 983.235,1297.06 1004.31,1298.28 1025.39,1299.76 1046.47,1301.49 1067.55,1303.46 1088.63,1305.66 1109.71,1308.07 1130.79,1310.69 1151.87,1313.49 1172.95,1316.45 1194.03,1319.56 1215.11,1322.81 1236.19,1326.15 1257.27,1329.58 1278.34,1333.06 1299.42,1336.58 1320.5,1340.09 1341.58,1343.58 1362.66,1347 1383.74,1350.34 1404.82,1353.55 1425.9,1356.59 1446.98,1359.44 1468.06,1362.04 1489.14,1364.37 1510.22,1366.37 1531.3,1368.01 1552.38,1369.24 1573.45,1370.02 1594.53,1370.29 1615.61,1370 1636.69,1369.11 1657.77,1367.56 1678.85,1365.3 1699.93,1362.27 1721.01,1358.42 1742.09,1353.68 1763.17,1347.99 1784.25,1341.31 1805.33,1333.55 1826.41,1324.66 1847.49,1314.56 1868.56,1303.2 1889.64,1290.5 1910.72,1276.39 1931.8,1260.8 1952.88,1243.65 1973.96,1224.88 1995.04,1204.39 2016.12,1182.12 2037.2,1157.98 2058.28,1131.89 2079.36,1103.77 2100.44,1073.53 2121.52,1041.09 2142.6,1006.36 2163.67,969.251 2184.75,929.67 2205.83,887.526 2226.91,842.724 2247.99,795.17 2269.07,744.767 2290.15,691.416 "/>
<polyline clip-path="url(#clip942)" style="stroke:#e26f46; stroke-linecap:round; stroke-linejoin:round; stroke-width:4; stroke-opacity:1; fill:none" points="203.301,87.9763 224.38,194.678 245.46,295.485 266.539,390.593 287.618,480.195 308.697,564.484 329.777,643.647 350.856,717.868 371.935,787.329 393.015,852.209 414.094,912.683 435.173,968.924 456.252,1021.1 477.332,1069.38 498.411,1113.93 519.49,1154.9 540.57,1192.45 561.649,1226.75 582.728,1257.93 603.807,1286.14 624.887,1311.54 645.966,1334.27 667.045,1354.45 688.125,1372.24 709.204,1387.76 730.283,1401.13 751.362,1412.5 772.442,1421.98 793.521,1429.68 814.6,1435.74 835.68,1440.26 856.759,1443.36 877.838,1445.14 898.917,1445.72 919.997,1445.18 941.076,1443.63 962.155,1441.17 983.235,1437.89 1004.31,1433.88 1025.39,1429.23 1046.47,1424.02 1067.55,1418.33 1088.63,1412.24 1109.71,1405.82 1130.79,1399.15 1151.87,1392.3 1172.95,1385.33 1194.03,1378.3 1215.11,1371.27 1236.19,1364.3 1257.27,1357.45 1278.34,1350.75 1299.42,1344.27 1320.5,1338.05 1341.58,1332.11 1362.66,1326.52 1383.74,1321.29 1404.82,1316.46 1425.9,1312.07 1446.98,1308.13 1468.06,1304.67 1489.14,1301.7 1510.22,1299.26 1531.3,1297.34 1552.38,1295.96 1573.45,1295.13 1594.53,1294.86 1615.61,1295.13 1636.69,1295.96 1657.77,1297.34 1678.85,1299.26 1699.93,1301.7 1721.01,1304.67 1742.09,1308.13 1763.17,1312.07 1784.25,1316.46 1805.33,1321.29 1826.41,1326.52 1847.49,1332.11 1868.56,1338.05 1889.64,1344.27 1910.72,1350.75 1931.8,1357.45 1952.88,1364.3 1973.96,1371.27 1995.04,1378.3 2016.12,1385.33 2037.2,1392.3 2058.28,1399.15 2079.36,1405.82 2100.44,1412.24 2121.52,1418.33 2142.6,1424.02 2163.67,1429.23 2184.75,1433.88 2205.83,1437.89 2226.91,1441.17 2247.99,1443.63 2269.07,1445.18 2290.15,1445.72 "/>
<polyline clip-path="url(#clip942)" style="stroke:#3da44d; stroke-linecap:round; stroke-linejoin:round; stroke-width:4; stroke-opacity:1; fill:none" points="203.301,1294.86 224.38,1294.86 245.46,1294.86 266.539,1294.86 287.618,1294.86 308.697,1294.86 329.777,1294.86 350.856,1294.86 371.935,1294.86 393.015,1294.86 414.094,1294.86 435.173,1294.86 456.252,1294.86 477.332,1294.86 498.411,1294.86 519.49,1294.86 540.57,1294.86 561.649,1294.86 582.728,1294.86 603.807,1294.86 624.887,1294.86 645.966,1294.86 667.045,1294.86 688.125,1294.86 709.204,1294.86 730.283,1294.86 751.362,1294.86 772.442,1294.86 793.521,1294.86 814.6,1294.86 835.68,1294.86 856.759,1294.86 877.838,1294.86 898.917,1294.86 919.997,1294.86 941.076,1294.86 962.155,1294.86 983.235,1294.86 1004.31,1294.86 1025.39,1294.86 1046.47,1294.86 1067.55,1294.86 1088.63,1294.86 1109.71,1294.86 1130.79,1294.86 1151.87,1294.86 1172.95,1294.86 1194.03,1294.86 1215.11,1294.86 1236.19,1294.86 1257.27,1294.86 1278.34,1294.86 1299.42,1294.86 1320.5,1294.86 1341.58,1294.86 1362.66,1294.86 1383.74,1294.86 1404.82,1294.86 1425.9,1294.86 1446.98,1294.86 1468.06,1294.86 1489.14,1294.86 1510.22,1294.86 1531.3,1294.86 1552.38,1294.86 1573.45,1294.86 1594.53,1294.86 1615.61,1294.86 1636.69,1294.86 1657.77,1294.86 1678.85,1294.86 1699.93,1294.86 1721.01,1294.86 1742.09,1294.86 1763.17,1294.86 1784.25,1294.86 1805.33,1294.86 1826.41,1294.86 1847.49,1294.86 1868.56,1294.86 1889.64,1294.86 1910.72,1294.86 1931.8,1294.86 1952.88,1294.86 1973.96,1294.86 1995.04,1294.86 2016.12,1294.86 2037.2,1294.86 2058.28,1294.86 2079.36,1294.86 2100.44,1294.86 2121.52,1294.86 2142.6,1294.86 2163.67,1294.86 2184.75,1294.86 2205.83,1294.86 2226.91,1294.86 2247.99,1294.86 2269.07,1294.86 2290.15,1294.86 "/>
<path clip-path="url(#clip942)" d="M1823.75 1309.84 L1819.99 1320.65 L1808.54 1320.89 L1817.67 1327.82 L1814.35 1338.78 L1823.75 1332.24 L1833.16 1338.78 L1829.83 1327.82 L1838.97 1320.89 L1827.51 1320.65 L1823.75 1309.84 Z" fill="#c271d2" fill-rule="evenodd" fill-opacity="1" stroke="#000000" stroke-opacity="1" stroke-width="3.2"/>
<path clip-path="url(#clip940)" d="M2016.43 250.738 L2279.02 250.738 L2279.02 95.2176 L2016.43 95.2176  Z" fill="#ffffff" fill-rule="evenodd" fill-opacity="1"/>
<polyline clip-path="url(#clip940)" style="stroke:#000000; stroke-linecap:round; stroke-linejoin:round; stroke-width:4; stroke-opacity:1; fill:none" points="2016.43,250.738 2279.02,250.738 2279.02,95.2176 2016.43,95.2176 2016.43,250.738 "/>
<polyline clip-path="url(#clip940)" style="stroke:#009af9; stroke-linecap:round; stroke-linejoin:round; stroke-width:4; stroke-opacity:1; fill:none" points="2041,147.058 2188.47,147.058 "/>
<path clip-path="url(#clip940)" d="M2229.56 128.319 L2229.56 131.861 L2225.48 131.861 Q2223.19 131.861 2222.29 132.787 Q2221.41 133.713 2221.41 136.12 L2221.41 138.412 L2228.42 138.412 L2228.42 141.722 L2221.41 141.722 L2221.41 164.338 L2217.13 164.338 L2217.13 141.722 L2213.05 141.722 L2213.05 138.412 L2217.13 138.412 L2217.13 136.606 Q2217.13 132.278 2219.14 130.31 Q2221.16 128.319 2225.53 128.319 L2229.56 128.319 Z" fill="#000000" fill-rule="nonzero" fill-opacity="1" /><path clip-path="url(#clip940)" d="M2234.53 160.402 L2242.17 160.402 L2242.17 134.037 L2233.86 135.703 L2233.86 131.444 L2242.13 129.778 L2246.8 129.778 L2246.8 160.402 L2254.44 160.402 L2254.44 164.338 L2234.53 164.338 L2234.53 160.402 Z" fill="#000000" fill-rule="nonzero" fill-opacity="1" /><polyline clip-path="url(#clip940)" style="stroke:#e26f46; stroke-linecap:round; stroke-linejoin:round; stroke-width:4; stroke-opacity:1; fill:none" points="2041,198.898 2188.47,198.898 "/>
<path clip-path="url(#clip940)" d="M2229.56 180.159 L2229.56 183.701 L2225.48 183.701 Q2223.19 183.701 2222.29 184.627 Q2221.41 185.553 2221.41 187.96 L2221.41 190.252 L2228.42 190.252 L2228.42 193.562 L2221.41 193.562 L2221.41 216.178 L2217.13 216.178 L2217.13 193.562 L2213.05 193.562 L2213.05 190.252 L2217.13 190.252 L2217.13 188.446 Q2217.13 184.118 2219.14 182.15 Q2221.16 180.159 2225.53 180.159 L2229.56 180.159 Z" fill="#000000" fill-rule="nonzero" fill-opacity="1" /><path clip-path="url(#clip940)" d="M2237.75 212.242 L2254.07 212.242 L2254.07 216.178 L2232.13 216.178 L2232.13 212.242 Q2234.79 209.488 2239.37 204.858 Q2243.98 200.205 2245.16 198.863 Q2247.41 196.34 2248.28 194.604 Q2249.19 192.844 2249.19 191.155 Q2249.19 188.4 2247.24 186.664 Q2245.32 184.928 2242.22 184.928 Q2240.02 184.928 2237.57 185.692 Q2235.14 186.455 2232.36 188.006 L2232.36 183.284 Q2235.18 182.15 2237.64 181.571 Q2240.09 180.993 2242.13 180.993 Q2247.5 180.993 2250.69 183.678 Q2253.89 186.363 2253.89 190.854 Q2253.89 192.983 2253.08 194.905 Q2252.29 196.803 2250.18 199.395 Q2249.6 200.067 2246.5 203.284 Q2243.4 206.479 2237.75 212.242 Z" fill="#000000" fill-rule="nonzero" fill-opacity="1" /></svg>
